<?xml version="1.0" encoding="UTF-8"?>
<svg xmlns="http://www.w3.org/2000/svg" xmlns:xlink="http://www.w3.org/1999/xlink" width="54px" height="71px" viewBox="0 0 54 71" version="1.1">
<g id="surface1">
<path style=" stroke:none;fill-rule:nonzero;fill:rgb(0%,0%,0%);fill-opacity:1;" d="M 0 35.5 L 0 71 L 54 71 L 54 0 L 0 0 Z M 26.410156 20.828125 L 26.421875 27.941406 L 26.503906 28.039062 C 26.609375 28.167969 27.398438 28.175781 27.515625 28.050781 L 27.589844 27.972656 L 27.589844 20.898438 C 27.589844 15.488281 27.597656 13.8125 27.625 13.753906 C 27.644531 13.707031 27.738281 13.675781 27.859375 13.675781 L 28.058594 13.675781 L 28.59375 14.382812 C 28.882812 14.777344 29.695312 15.863281 30.390625 16.796875 C 31.085938 17.730469 31.921875 18.847656 32.246094 19.28125 C 32.570312 19.714844 32.871094 20.125 32.914062 20.195312 L 32.992188 20.320312 L 32.984375 28.386719 L 32.976562 36.445312 L 31.5 38.445312 C 30.6875 39.535156 29.964844 40.507812 29.890625 40.601562 L 29.757812 40.757812 L 29.757812 24.519531 L 29.226562 23.902344 C 28.933594 23.5625 28.6875 23.296875 28.675781 23.316406 C 28.667969 23.34375 28.660156 24.96875 28.660156 26.933594 L 28.660156 30.503906 L 25.339844 30.503906 L 25.339844 26.886719 C 25.339844 24.894531 25.335938 23.273438 25.328125 23.273438 C 25.316406 23.273438 25.070312 23.554688 24.777344 23.898438 L 24.242188 24.519531 L 24.238281 32.632812 L 24.230469 40.746094 L 22.621094 38.578125 L 21.007812 36.40625 L 21.007812 28.367188 C 21.007812 22.015625 21.019531 20.3125 21.046875 20.269531 C 21.089844 20.183594 25.875 13.773438 25.929688 13.71875 C 25.953125 13.699219 26.070312 13.6875 26.183594 13.695312 L 26.394531 13.707031 Z M 28.621094 33.246094 C 28.652344 33.269531 28.660156 34.035156 28.660156 37.730469 L 28.660156 42.171875 L 28.238281 42.75 C 27.925781 43.179688 27.789062 43.324219 27.71875 43.324219 L 27.617188 43.324219 L 27.617188 35.566406 L 27.015625 35.566406 C 26.417969 35.566406 26.414062 35.566406 26.398438 35.710938 C 26.390625 35.796875 26.382812 37.539062 26.382812 39.589844 L 26.382812 43.324219 L 26.285156 43.324219 C 26.214844 43.324219 26.078125 43.164062 25.769531 42.746094 L 25.355469 42.167969 L 25.347656 37.773438 C 25.34375 34.625 25.347656 33.351562 25.371094 33.292969 C 25.394531 33.226562 25.527344 33.199219 25.898438 33.179688 C 26.515625 33.144531 28.570312 33.199219 28.621094 33.246094 Z M 19.773438 47.792969 L 19.773438 49.4375 L 20.503906 49.4375 L 20.503906 46.148438 L 21.375 46.148438 L 21.375 54.300781 L 20.503906 54.300781 L 20.503906 51.015625 L 19.773438 51.015625 L 19.773438 54.300781 L 18.898438 54.300781 L 18.898438 46.148438 L 19.773438 46.148438 Z M 24.070312 50.140625 C 24.34375 52.328125 24.566406 54.183594 24.574219 54.25 C 24.585938 54.359375 24.5625 54.367188 24.164062 54.367188 C 23.679688 54.367188 23.726562 54.425781 23.640625 53.691406 L 23.59375 53.316406 L 22.699219 53.316406 L 22.65625 53.691406 C 22.566406 54.425781 22.617188 54.367188 22.132812 54.367188 C 21.730469 54.367188 21.707031 54.359375 21.71875 54.25 C 21.726562 54.175781 21.953125 52.328125 22.222656 50.140625 L 22.710938 46.148438 L 23.582031 46.148438 Z M 27.160156 46.492188 L 27.308594 46.832031 L 27.308594 50.976562 L 27.164062 51.324219 L 27.015625 51.671875 L 25.734375 51.671875 L 25.734375 54.300781 L 24.863281 54.300781 L 24.863281 46.148438 L 27.011719 46.148438 Z M 29.867188 46.9375 L 29.867188 47.726562 L 29.164062 47.726562 L 29.164062 54.375 L 28.738281 54.355469 L 28.308594 54.335938 L 28.300781 51.027344 L 28.292969 47.726562 L 27.617188 47.726562 L 27.617188 46.148438 L 29.867188 46.148438 Z M 32.175781 46.9375 L 32.175781 47.726562 L 31.078125 47.726562 L 31.078125 49.4375 L 31.976562 49.4375 L 31.976562 51.015625 L 31.078125 51.015625 L 31.078125 52.722656 L 32.175781 52.722656 L 32.175781 54.300781 L 30.207031 54.300781 L 30.207031 46.148438 L 32.175781 46.148438 Z M 33.5 46.6875 C 33.5625 46.992188 33.660156 47.496094 33.707031 47.820312 L 33.796875 48.398438 L 33.859375 47.984375 C 33.894531 47.753906 33.988281 47.246094 34.066406 46.851562 L 34.210938 46.148438 L 34.640625 46.148438 C 34.878906 46.148438 35.070312 46.164062 35.070312 46.183594 C 35.070312 46.203125 34.878906 47.101562 34.648438 48.1875 L 34.226562 50.160156 L 34.664062 52.199219 C 34.902344 53.316406 35.101562 54.261719 35.101562 54.300781 C 35.101562 54.339844 34.941406 54.367188 34.679688 54.367188 L 34.257812 54.367188 L 34.027344 53.300781 L 33.796875 52.230469 L 33.570312 53.300781 L 33.34375 54.367188 L 32.914062 54.367188 C 32.679688 54.367188 32.484375 54.355469 32.484375 54.335938 C 32.484375 54.316406 32.683594 53.367188 32.925781 52.230469 L 33.371094 50.160156 L 32.941406 48.15625 L 32.511719 46.148438 L 33.382812 46.148438 Z M 27.578125 57.074219 C 27.550781 57.261719 27.308594 60.027344 27.308594 60.152344 C 27.308594 60.382812 27.390625 60.296875 27.476562 59.976562 C 27.574219 59.621094 27.585938 59.648438 27.507812 60.019531 C 27.476562 60.164062 27.417969 60.332031 27.378906 60.390625 C 27.285156 60.535156 27.175781 60.460938 27.152344 60.25 C 27.144531 60.164062 27.1875 59.523438 27.25 58.792969 C 27.316406 58.074219 27.367188 57.457031 27.367188 57.410156 C 27.367188 57.367188 27.332031 57.285156 27.289062 57.234375 L 27.210938 57.136719 L 27.308594 57.128906 C 27.363281 57.121094 27.433594 57.097656 27.464844 57.0625 C 27.546875 56.976562 27.589844 56.984375 27.578125 57.074219 Z M 22.0625 57.242188 C 22.070312 57.34375 22.125 58.03125 22.175781 58.773438 C 22.277344 60.152344 22.300781 60.285156 22.421875 60.285156 C 22.449219 60.285156 22.472656 60.304688 22.472656 60.332031 C 22.472656 60.363281 22.332031 60.382812 22.164062 60.382812 C 21.992188 60.382812 21.851562 60.363281 21.851562 60.335938 C 21.851562 60.304688 21.882812 60.285156 21.921875 60.285156 C 21.960938 60.285156 22 60.25 22.011719 60.207031 C 22.03125 60.121094 22.03125 59.6875 22.003906 59.410156 C 21.988281 59.230469 21.988281 59.230469 21.757812 59.230469 L 21.523438 59.230469 L 21.433594 59.621094 C 21.328125 60.085938 21.324219 60.207031 21.417969 60.285156 C 21.457031 60.316406 21.488281 60.355469 21.488281 60.363281 C 21.488281 60.375 21.378906 60.382812 21.25 60.382812 C 21.117188 60.382812 21.007812 60.363281 21.007812 60.332031 C 21.007812 60.304688 21.035156 60.285156 21.0625 60.285156 C 21.171875 60.285156 21.285156 59.9375 21.628906 58.515625 C 21.820312 57.71875 21.992188 57.0625 22.011719 57.0625 C 22.03125 57.0625 22.054688 57.140625 22.0625 57.242188 Z M 29.335938 57.246094 L 29.460938 57.390625 L 29.511719 57.242188 L 29.566406 57.097656 L 29.550781 57.261719 C 29.542969 57.351562 29.519531 57.609375 29.5 57.832031 C 29.484375 58.0625 29.457031 58.246094 29.445312 58.246094 C 29.433594 58.246094 29.414062 58.132812 29.402344 57.996094 C 29.355469 57.410156 29.226562 57.15625 28.992188 57.207031 C 28.824219 57.246094 28.695312 57.46875 28.59375 57.917969 C 28.386719 58.796875 28.382812 59.917969 28.578125 60.246094 C 28.660156 60.375 28.863281 60.382812 28.964844 60.257812 C 29.105469 60.085938 29.175781 59.851562 29.1875 59.496094 L 29.203125 59.167969 L 29.113281 59.167969 C 29.0625 59.167969 29.023438 59.132812 29.023438 59.101562 C 29.023438 59.0625 29.132812 59.035156 29.292969 59.035156 C 29.558594 59.035156 29.617188 59.082031 29.496094 59.199219 C 29.445312 59.253906 29.421875 59.371094 29.390625 59.691406 C 29.355469 60.019531 29.332031 60.125 29.292969 60.144531 C 29.261719 60.160156 29.144531 60.238281 29.035156 60.324219 C 28.71875 60.574219 28.523438 60.507812 28.347656 60.09375 C 27.980469 59.238281 28.292969 57.476562 28.871094 57.121094 C 29.003906 57.035156 29.203125 57.097656 29.335938 57.246094 Z M 23.007812 57.800781 C 23.007812 57.84375 22.988281 58.050781 22.964844 58.246094 C 22.90625 58.726562 22.90625 58.726562 23.015625 58.476562 C 23.128906 58.214844 23.277344 58.128906 23.390625 58.257812 C 23.453125 58.332031 23.5 58.464844 23.558594 58.757812 C 23.570312 58.8125 23.839844 58.082031 23.871094 57.910156 C 23.898438 57.773438 23.925781 57.71875 23.976562 57.71875 C 24.058594 57.71875 24.0625 57.761719 24.003906 58.246094 C 23.949219 58.726562 23.949219 58.726562 24.054688 58.476562 C 24.28125 57.945312 24.601562 58.21875 24.589844 58.941406 C 24.585938 59.304688 24.484375 59.824219 24.375 60.074219 C 24.191406 60.488281 23.945312 60.582031 23.871094 60.265625 C 23.84375 60.132812 23.832031 60.1875 23.789062 60.679688 C 23.730469 61.324219 23.742188 61.46875 23.835938 61.46875 C 23.871094 61.46875 23.910156 61.5 23.921875 61.546875 C 23.9375 61.597656 23.910156 61.605469 23.832031 61.578125 C 23.773438 61.554688 23.648438 61.535156 23.554688 61.527344 C 23.460938 61.519531 23.414062 61.5 23.449219 61.488281 C 23.484375 61.472656 23.527344 61.402344 23.539062 61.335938 C 23.570312 61.203125 23.824219 58.421875 23.808594 58.390625 C 23.800781 58.378906 23.769531 58.417969 23.730469 58.476562 C 23.65625 58.589844 23.574219 58.921875 23.496094 59.457031 C 23.4375 59.863281 23.304688 60.207031 23.152344 60.363281 C 23.007812 60.515625 22.878906 60.476562 22.832031 60.265625 C 22.804688 60.132812 22.792969 60.1875 22.75 60.679688 C 22.691406 61.324219 22.703125 61.46875 22.796875 61.46875 C 22.832031 61.46875 22.871094 61.5 22.882812 61.546875 C 22.898438 61.597656 22.871094 61.605469 22.792969 61.578125 C 22.734375 61.554688 22.605469 61.535156 22.515625 61.527344 C 22.421875 61.519531 22.375 61.5 22.410156 61.488281 C 22.445312 61.472656 22.484375 61.402344 22.5 61.335938 C 22.515625 61.269531 22.578125 60.644531 22.640625 59.941406 C 22.703125 59.246094 22.757812 58.609375 22.765625 58.523438 C 22.777344 58.445312 22.769531 58.378906 22.757812 58.378906 C 22.726562 58.378906 22.613281 58.628906 22.546875 58.839844 L 22.5 59.003906 L 22.539062 58.804688 C 22.5625 58.691406 22.625 58.503906 22.683594 58.378906 C 22.742188 58.253906 22.804688 58.050781 22.828125 57.929688 C 22.855469 57.773438 22.886719 57.71875 22.9375 57.71875 C 22.976562 57.71875 23.007812 57.761719 23.007812 57.800781 Z M 32.792969 57.800781 C 32.792969 57.84375 32.773438 58.050781 32.75 58.246094 C 32.695312 58.726562 32.695312 58.726562 32.800781 58.476562 C 33.03125 57.945312 33.347656 58.21875 33.335938 58.941406 C 33.332031 59.304688 33.234375 59.824219 33.121094 60.074219 C 32.941406 60.488281 32.691406 60.582031 32.621094 60.265625 C 32.589844 60.132812 32.578125 60.1875 32.539062 60.679688 C 32.480469 61.324219 32.488281 61.46875 32.582031 61.46875 C 32.621094 61.46875 32.660156 61.5 32.671875 61.546875 C 32.683594 61.597656 32.660156 61.605469 32.578125 61.578125 C 32.519531 61.554688 32.394531 61.535156 32.300781 61.527344 C 32.207031 61.519531 32.160156 61.5 32.199219 61.488281 C 32.230469 61.472656 32.269531 61.402344 32.289062 61.335938 C 32.300781 61.269531 32.367188 60.644531 32.429688 59.941406 C 32.488281 59.246094 32.546875 58.609375 32.554688 58.523438 C 32.5625 58.445312 32.558594 58.378906 32.546875 58.378906 C 32.511719 58.378906 32.398438 58.628906 32.335938 58.839844 L 32.289062 59.003906 L 32.328125 58.804688 C 32.347656 58.691406 32.414062 58.503906 32.46875 58.378906 C 32.53125 58.253906 32.59375 58.050781 32.613281 57.929688 C 32.644531 57.773438 32.671875 57.71875 32.722656 57.71875 C 32.761719 57.71875 32.792969 57.761719 32.792969 57.800781 Z M 25.253906 58.304688 C 25.296875 58.410156 25.308594 58.417969 25.324219 58.339844 C 25.332031 58.285156 25.378906 58.246094 25.425781 58.246094 C 25.5 58.246094 25.507812 58.265625 25.5 58.363281 C 25.453125 58.679688 25.339844 59.941406 25.339844 60.105469 C 25.339844 60.382812 25.425781 60.3125 25.503906 59.96875 C 25.589844 59.613281 25.617188 59.652344 25.539062 60.015625 C 25.46875 60.34375 25.367188 60.507812 25.269531 60.457031 C 25.195312 60.410156 25.152344 60.171875 25.1875 59.976562 C 25.195312 59.910156 25.15625 59.980469 25.101562 60.132812 C 24.992188 60.433594 24.871094 60.535156 24.746094 60.421875 C 24.535156 60.230469 24.554688 59.277344 24.785156 58.667969 C 24.960938 58.199219 25.148438 58.054688 25.253906 58.304688 Z M 25.96875 58.285156 C 26.019531 58.398438 26.023438 58.535156 25.992188 58.949219 C 25.976562 59.109375 25.96875 59.230469 25.976562 59.230469 C 25.984375 59.230469 26.019531 59.074219 26.054688 58.882812 C 26.152344 58.378906 26.300781 58.113281 26.433594 58.214844 C 26.554688 58.300781 26.527344 58.707031 26.40625 58.707031 C 26.371094 58.707031 26.351562 58.660156 26.351562 58.574219 C 26.351562 58.503906 26.332031 58.421875 26.3125 58.398438 C 26.191406 58.300781 26.023438 59.015625 25.902344 60.132812 C 25.875 60.390625 25.863281 60.414062 25.789062 60.414062 C 25.742188 60.414062 25.707031 60.402344 25.707031 60.390625 C 25.707031 60.371094 25.738281 60.019531 25.777344 59.601562 C 25.859375 58.671875 25.867188 58.359375 25.800781 58.390625 C 25.769531 58.402344 25.71875 58.542969 25.683594 58.691406 C 25.597656 59.046875 25.570312 59.007812 25.648438 58.652344 C 25.742188 58.21875 25.878906 58.070312 25.96875 58.285156 Z M 27.054688 58.300781 C 27.1875 58.542969 27.050781 59.027344 26.734375 59.457031 C 26.582031 59.667969 26.550781 59.738281 26.550781 59.882812 C 26.550781 60.121094 26.625 60.351562 26.695312 60.351562 C 26.734375 60.351562 26.8125 60.210938 26.894531 60.015625 C 26.96875 59.832031 27.015625 59.75 27 59.835938 C 26.902344 60.277344 26.710938 60.527344 26.53125 60.457031 C 26.359375 60.375 26.300781 59.9375 26.378906 59.277344 C 26.472656 58.527344 26.871094 57.949219 27.054688 58.300781 Z M 29.90625 58.285156 C 29.957031 58.398438 29.960938 58.535156 29.929688 58.949219 C 29.914062 59.109375 29.90625 59.230469 29.914062 59.230469 C 29.921875 59.230469 29.957031 59.074219 29.992188 58.882812 C 30.089844 58.378906 30.238281 58.113281 30.371094 58.214844 C 30.492188 58.300781 30.464844 58.707031 30.34375 58.707031 C 30.308594 58.707031 30.289062 58.660156 30.289062 58.574219 C 30.289062 58.503906 30.269531 58.421875 30.25 58.398438 C 30.128906 58.300781 29.960938 59.015625 29.839844 60.132812 C 29.8125 60.390625 29.800781 60.414062 29.726562 60.414062 C 29.679688 60.414062 29.644531 60.402344 29.644531 60.390625 C 29.644531 60.371094 29.675781 60.019531 29.714844 59.601562 C 29.796875 58.671875 29.804688 58.359375 29.738281 58.390625 C 29.707031 58.402344 29.65625 58.542969 29.621094 58.691406 C 29.535156 59.046875 29.507812 59.007812 29.585938 58.652344 C 29.679688 58.21875 29.816406 58.070312 29.90625 58.285156 Z M 31.0625 58.273438 C 31.117188 58.324219 31.175781 58.445312 31.195312 58.535156 L 31.226562 58.707031 L 31.277344 58.515625 C 31.339844 58.273438 31.429688 58.160156 31.515625 58.207031 C 31.617188 58.265625 31.625 58.449219 31.554688 59.167969 C 31.484375 59.917969 31.488281 60.238281 31.566406 60.269531 C 31.699219 60.332031 31.886719 59.582031 32.007812 58.523438 C 32.035156 58.273438 32.046875 58.246094 32.121094 58.246094 C 32.199219 58.246094 32.207031 58.257812 32.191406 58.417969 C 32.136719 58.9375 32.0625 59.871094 32.0625 60.066406 C 32.0625 60.382812 32.136719 60.335938 32.226562 59.96875 C 32.261719 59.8125 32.296875 59.699219 32.308594 59.71875 C 32.332031 59.777344 32.179688 60.34375 32.117188 60.421875 C 32.03125 60.519531 31.925781 60.441406 31.90625 60.257812 C 31.898438 60.171875 31.902344 59.957031 31.917969 59.765625 C 31.929688 59.582031 31.9375 59.429688 31.933594 59.429688 C 31.925781 59.429688 31.898438 59.554688 31.863281 59.707031 C 31.734375 60.316406 31.539062 60.601562 31.402344 60.390625 C 31.3125 60.25 31.3125 59.988281 31.386719 59.296875 C 31.453125 58.691406 31.460938 58.378906 31.402344 58.378906 C 31.34375 58.378906 31.253906 58.734375 31.21875 59.128906 C 31.132812 60.074219 30.773438 60.683594 30.476562 60.390625 C 30.332031 60.25 30.28125 59.941406 30.320312 59.515625 C 30.410156 58.554688 30.761719 57.976562 31.0625 58.273438 Z M 31.0625 58.273438 "/>
<path style=" stroke:none;fill-rule:nonzero;fill:rgb(0%,0%,0%);fill-opacity:1;" d="M 24.484375 18.382812 C 24.019531 19.023438 23.289062 20.023438 22.867188 20.609375 L 22.09375 21.675781 L 22.082031 28.222656 C 22.078125 34.390625 22.082031 34.785156 22.125 34.914062 C 22.195312 35.105469 23.007812 36.269531 23.089844 36.300781 L 23.160156 36.320312 L 23.167969 29.808594 C 23.175781 24.699219 23.183594 23.273438 23.210938 23.21875 C 23.226562 23.1875 23.679688 22.554688 24.214844 21.832031 C 24.75 21.101562 25.21875 20.425781 25.265625 20.328125 L 25.339844 20.144531 L 25.335938 18.683594 L 25.328125 17.21875 Z M 24.484375 18.382812 "/>
<path style=" stroke:none;fill-rule:nonzero;fill:rgb(0%,0%,0%);fill-opacity:1;" d="M 28.679688 17.269531 C 28.667969 17.289062 28.660156 17.945312 28.660156 18.730469 L 28.660156 20.148438 L 28.734375 20.3125 C 28.773438 20.40625 29.253906 21.082031 29.796875 21.824219 C 30.476562 22.757812 30.792969 23.226562 30.816406 23.339844 C 30.84375 23.46875 30.851562 24.894531 30.851562 29.925781 L 30.851562 36.347656 L 30.9375 36.289062 C 31.046875 36.214844 31.746094 35.203125 31.859375 34.953125 L 31.949219 34.75 L 31.949219 21.722656 L 31.648438 21.304688 C 31.480469 21.078125 30.777344 20.105469 30.078125 19.144531 C 29.386719 18.183594 28.789062 17.363281 28.753906 17.308594 C 28.722656 17.261719 28.6875 17.242188 28.679688 17.269531 Z M 28.679688 17.269531 "/>
<path style=" stroke:none;fill-rule:nonzero;fill:rgb(0%,0%,0%);fill-opacity:1;" d="M 23.136719 48.949219 C 23.121094 49.023438 22.835938 51.574219 22.835938 51.671875 C 22.835938 51.710938 22.96875 51.738281 23.148438 51.738281 L 23.460938 51.738281 L 23.4375 51.488281 C 23.390625 50.902344 23.15625 48.890625 23.136719 48.949219 Z M 23.136719 48.949219 "/>
<path style=" stroke:none;fill-rule:nonzero;fill:rgb(0%,0%,0%);fill-opacity:1;" d="M 25.734375 48.910156 L 25.734375 50.09375 L 26.011719 50.09375 C 26.277344 50.09375 26.289062 50.085938 26.363281 49.910156 C 26.433594 49.734375 26.4375 49.707031 26.4375 48.910156 C 26.4375 48.117188 26.433594 48.089844 26.363281 47.910156 C 26.289062 47.734375 26.277344 47.726562 26.011719 47.726562 L 25.734375 47.726562 Z M 25.734375 48.910156 "/>
<path style=" stroke:none;fill-rule:nonzero;fill:rgb(0%,0%,0%);fill-opacity:1;" d="M 21.726562 58.382812 C 21.652344 58.714844 21.582031 59.007812 21.578125 59.042969 C 21.566406 59.101562 21.945312 59.128906 21.96875 59.066406 C 21.988281 59.027344 21.902344 57.785156 21.882812 57.785156 C 21.875 57.785156 21.804688 58.054688 21.726562 58.382812 Z M 21.726562 58.382812 "/>
<path style=" stroke:none;fill-rule:nonzero;fill:rgb(0%,0%,0%);fill-opacity:1;" d="M 23.058594 58.507812 C 22.90625 58.777344 22.796875 59.804688 22.871094 60.152344 C 22.914062 60.335938 23.027344 60.402344 23.117188 60.289062 C 23.257812 60.105469 23.398438 58.882812 23.320312 58.523438 C 23.277344 58.339844 23.152344 58.332031 23.058594 58.507812 Z M 23.058594 58.507812 "/>
<path style=" stroke:none;fill-rule:nonzero;fill:rgb(0%,0%,0%);fill-opacity:1;" d="M 24.097656 58.507812 C 23.949219 58.777344 23.835938 59.804688 23.910156 60.152344 C 23.953125 60.335938 24.066406 60.402344 24.15625 60.289062 C 24.300781 60.105469 24.441406 58.882812 24.359375 58.523438 C 24.316406 58.339844 24.191406 58.332031 24.097656 58.507812 Z M 24.097656 58.507812 "/>
<path style=" stroke:none;fill-rule:nonzero;fill:rgb(0%,0%,0%);fill-opacity:1;" d="M 32.84375 58.507812 C 32.695312 58.777344 32.582031 59.804688 32.660156 60.152344 C 32.699219 60.335938 32.8125 60.402344 32.902344 60.289062 C 33.046875 60.105469 33.1875 58.882812 33.105469 58.523438 C 33.0625 58.339844 32.941406 58.332031 32.84375 58.507812 Z M 32.84375 58.507812 "/>
<path style=" stroke:none;fill-rule:nonzero;fill:rgb(0%,0%,0%);fill-opacity:1;" d="M 25.007812 58.457031 C 24.84375 58.804688 24.738281 59.988281 24.847656 60.238281 C 24.910156 60.382812 24.949219 60.375 25.027344 60.207031 C 25.175781 59.894531 25.324219 58.734375 25.257812 58.445312 C 25.21875 58.265625 25.085938 58.273438 25.007812 58.457031 Z M 25.007812 58.457031 "/>
<path style=" stroke:none;fill-rule:nonzero;fill:rgb(0%,0%,0%);fill-opacity:1;" d="M 26.722656 58.542969 C 26.640625 58.757812 26.527344 59.460938 26.5625 59.542969 C 26.589844 59.605469 26.855469 59.152344 26.914062 58.9375 C 26.945312 58.816406 26.972656 58.632812 26.972656 58.515625 C 26.972656 58.332031 26.964844 58.3125 26.890625 58.3125 C 26.832031 58.3125 26.785156 58.378906 26.722656 58.542969 Z M 26.722656 58.542969 "/>
<path style=" stroke:none;fill-rule:nonzero;fill:rgb(0%,0%,0%);fill-opacity:1;" d="M 30.6875 58.542969 C 30.546875 58.921875 30.464844 59.871094 30.542969 60.226562 C 30.59375 60.441406 30.746094 60.390625 30.851562 60.121094 C 30.992188 59.738281 31.074219 58.792969 30.992188 58.4375 C 30.941406 58.21875 30.792969 58.273438 30.6875 58.542969 Z M 30.6875 58.542969 "/>
</g>
</svg>
